<svg id="visual" viewBox="0 0 900 600" width="900" height="600" xmlns="http://www.w3.org/2000/svg" xmlns:xlink="http://www.w3.org/1999/xlink" version="1.1"><rect x="0" y="0" width="900" height="600" fill="#002"></rect><path d="M743 600L735.8 580C728.7 560 714.3 520 713.7 480C713 440 726 400 726 360C726 320 713 280 706 240C699 200 698 160 703 120C708 80 719 40 724.5 20L730 0L900 0L900 20C900 40 900 80 900 120C900 160 900 200 900 240C900 280 900 320 900 360C900 400 900 440 900 480C900 520 900 560 900 580L900 600Z" fill="#52518a" stroke-linecap="round" stroke-linejoin="miter"></path></svg>